<svg width="194.690186" height="25.455933" viewBox="0 0 194.69 25.4559" fill="none" xmlns="http://www.w3.org/2000/svg" xmlns:xlink="http://www.w3.org/1999/xlink">
	<desc>
			Created with Pixso.
	</desc>
	<defs/>
	<path d="M91.64 5.85C94.2 5.86 96.85 5.92 99.57 6L99.57 0.54L77.23 0.54L77.23 6C79.92 5.92 82.55 5.86 85.14 5.85L85.14 19.42L91.64 19.42L91.64 5.85ZM113.02 4.96Q113.95 4.96 114.78 5.25Q115.45 5.49 116.06 5.92C116.96 6.57 117.67 7.44 118.17 8.55C118.67 9.64 118.92 10.85 118.92 12.16C118.92 13.47 118.67 14.7 118.17 15.86C117.67 17 116.96 17.93 116.04 18.64C115.14 19.33 114.1 19.68 112.94 19.68C111.59 19.68 110.43 19.4 109.46 18.85C108.51 18.28 107.8 17.4 107.33 16.22C107.33 17.21 107.36 18.79 107.43 20.98C107.5 23.09 107.54 24.58 107.54 25.45L101.66 25.45C101.76 22.23 101.82 18.86 101.82 15.34C101.82 11.82 101.76 8.45 101.66 5.22L106.65 5.22L107.41 8.47Q108.02 6.94 109.15 6.11Q109.36 5.95 109.59 5.82C110.56 5.25 111.7 4.96 113.02 4.96ZM163.35 14.79C162.82 14.31 162.48 13.68 162.34 12.92L174.04 12.92Q174.09 12.58 174.09 11.91C174.09 10.55 173.75 9.36 173.05 8.32C172.36 7.26 171.36 6.44 170.06 5.85C168.76 5.26 167.23 4.96 165.46 4.96C162.5 4.96 160.31 5.64 158.91 6.99C157.5 8.34 156.8 10.1 156.8 12.27C156.8 14.49 157.5 16.28 158.91 17.65Q161.04 19.68 165.46 19.68C167.73 19.68 169.57 19.32 170.97 18.61C172.39 17.89 173.37 16.91 173.91 15.7C171.99 15.04 170.44 14.43 169.28 13.86C168.9 14.38 168.39 14.78 167.75 15.08C167.11 15.35 166.42 15.49 165.69 15.49Q164.19 15.49 163.35 14.79ZM135.31 7.04Q133.13 4.99 128.71 4.99Q124.24 4.99 121.93 7.22L121.93 7.22Q121.06 8.06 120.49 9.2Q122.21 9.8 124.6 11.02Q124.66 10.93 124.72 10.84L124.72 10.84L124.72 10.83Q125.27 10.04 126.37 9.62C127.2 9.3 128.02 9.15 128.84 9.15Q131.19 9.15 132.2 10.31L132.2 10.31Q132.34 10.47 132.45 10.66L125.8 10.66L125.8 13.93L132.58 13.93C131.98 14.99 130.64 15.52 128.58 15.52C127.5 15.52 126.65 15.35 126.01 15.03C125.38 14.7 124.91 14.2 124.6 13.54Q123.28 14.27 120.52 15.47C121.16 17.04 122.24 18.15 123.74 18.77C125.27 19.38 126.92 19.68 128.71 19.68C131.66 19.68 133.86 19.05 135.31 17.81C136.79 16.56 137.52 14.79 137.52 12.5C137.52 10.22 136.79 8.4 135.31 7.04ZM154.88 13.81Q155.25 14.39 155.25 15.21C155.25 16.56 154.73 17.6 153.69 18.33C152.67 19.05 150.81 19.42 148.13 19.42L139.34 19.42C139.42 17.44 139.47 15.08 139.47 12.32C139.47 9.56 139.42 7.2 139.34 5.22L144.72 5.22L144.72 5.25L148.1 5.25Q150.55 5.25 151.92 5.66C152.86 5.92 153.52 6.31 153.9 6.81C154.28 7.31 154.47 7.95 154.47 8.73Q154.47 9.43 154.22 10.01L154.22 10.01Q153.5 11.63 150.81 12.37Q153.97 12.37 154.88 13.81ZM192.1 19.55L186.41 19.55L186.41 10.14L182.71 10.14L182.69 10.94Q182.66 12.19 182.58 13.15C182.55 13.78 182.46 14.45 182.32 15.18C181.73 18.35 179.33 19.94 175.12 19.94L175.12 15.8C175.94 15.7 176.49 15.45 176.79 15.05C177.08 14.64 177.23 13.99 177.23 13.13L177.23 5.22L192.1 5.25L192.1 19.55ZM144.72 8.81L144.72 10.63L146.7 10.63C147.49 10.63 148.06 10.56 148.39 10.42C148.72 10.27 148.88 10 148.88 9.62C148.88 9.32 148.71 9.11 148.36 8.99C148.03 8.87 147.48 8.81 146.7 8.81L144.72 8.81ZM163.69 9.38C164.25 9.05 164.96 8.89 165.82 8.89C166.57 8.89 167.18 9.06 167.64 9.41C168.11 9.74 168.45 10.18 168.66 10.74L162.52 10.74Q162.65 10.4 162.86 10.13L162.86 10.13L162.86 10.13Q163.18 9.69 163.69 9.38ZM110.24 15C111.02 15 111.67 14.76 112.19 14.27C112.73 13.77 113 13.12 113 12.32C113 11.44 112.75 10.72 112.27 10.16C111.78 9.61 111.12 9.33 110.29 9.33C109.34 9.33 108.62 9.56 108.13 10.03C107.65 10.48 107.41 11.25 107.41 12.32C107.41 12.93 107.56 13.44 107.87 13.86C108.19 14.25 108.56 14.55 108.99 14.74Q109.64 15 110.24 15ZM146.7 15.83C147.69 15.83 148.36 15.76 148.73 15.62C149.09 15.47 149.27 15.2 149.27 14.82C149.27 14.49 149.08 14.25 148.7 14.09C148.32 13.93 147.65 13.86 146.7 13.86L144.72 13.86L144.72 15.83L146.7 15.83Z" fill="#000000" fill-opacity="1.000000" fill-rule="evenodd"/>
	<path d="M19.65 2.7Q16.87 0 10.99 0Q5.02 0 1.91 2.98Q0.75 4.1 0 5.64Q2.33 6.44 5.48 8.06Q5.74 7.55 6.1 7.14Q6.79 6.36 7.85 5.9Q9.19 5.32 10.58 5.22Q10.88 5.2 11.18 5.2Q13 5.2 14.22 5.85Q15.16 6.32 15.73 7.07Q15.92 7.31 16.06 7.59L7.07 7.59L7.07 11.96L16.22 11.96C15.82 12.77 15.15 13.4 14.22 13.83C13.3 14.25 12.15 14.45 10.79 14.45C9.35 14.45 8.2 14.22 7.35 13.75Q7.07 13.59 6.82 13.39Q5.95 12.68 5.48 11.46Q3.35 12.61 0.02 14.04Q0.75 15.79 2.02 16.96Q3.02 17.88 4.36 18.43Q7.41 19.68 10.99 19.68Q16.87 19.68 19.65 17.18Q20.2 16.69 20.64 16.12Q22.43 13.78 22.43 10.06Q22.43 6.4 20.71 3.95Q20.25 3.28 19.65 2.7ZM59.53 12.03C59.53 10.01 59.58 7.74 59.66 5.22L52.23 5.22L48.25 14.45L48.51 5.22L43.39 5.22C43.49 7.48 43.54 9.75 43.54 12.03C43.54 14.29 43.49 16.56 43.39 18.85L50.64 18.85L54.62 9.85L54.33 18.85L59.66 18.85C59.58 16.3 59.53 14.03 59.53 12.03ZM76.83 14.74C76.41 13.96 75.81 13.26 75.03 12.63C74.37 12.11 73.59 11.66 72.69 11.28L78.78 5.22L71.91 5.22C70.98 6.56 69.48 8.26 67.41 10.32L67.31 10.32L67.31 5.22L61.75 5.22C61.83 7.2 61.88 9.56 61.88 12.32C61.88 15.08 61.83 17.44 61.75 19.42L67.31 19.42L67.31 14.58Q68.9 14.58 69.7 14.79C70.24 14.93 70.72 15.23 71.16 15.7C71.43 16 71.64 16.34 71.78 16.74C71.92 17.12 72.06 17.63 72.2 18.27C72.35 18.92 72.46 19.3 72.51 19.42L78.78 19.42C78.62 19.12 78.36 18.5 78 17.55Q77.45 15.91 76.83 14.74ZM24.52 5.25L41.32 5.25L41.32 19.55L35.62 19.55L35.62 10.14L30.22 10.14L30.22 19.55L24.52 19.55L24.52 5.25Z" fill="#00CEB5" fill-opacity="1.000000" fill-rule="evenodd"/>
</svg>
