<svg width="260.000000" height="260.000000" viewBox="0 0 260 260" fill="none" xmlns="http://www.w3.org/2000/svg" xmlns:xlink="http://www.w3.org/1999/xlink">
	<desc>
			Created with Pixso.
	</desc>
	<defs>
		<clipPath id="clip939_2">
			<rect id="favicon" rx="79.500000" width="259.000000" height="259.000000" transform="translate(0.500000 0.500000)" fill="white" fill-opacity="0"/>
		</clipPath>
	</defs>
	<rect id="favicon" rx="79.500000" width="259.000000" height="259.000000" transform="translate(0.500000 0.500000)" fill="#00CEB5" fill-opacity="1.000000"/>
	<g clip-path="url(#clip939_2)">
		<path id="Э" d="M127.6 52.6C157.73 52.6 179.93 59.53 194.2 73.4C208.46 87.26 215.6 106.13 215.6 130C215.6 153.73 208.46 172 194.2 184.8C179.93 197.6 157.73 204 127.6 204C109.2 204 92.2 200.8 76.59 194.4C61 188 49.86 176.73 43.2 160.6C60.26 153.26 74.26 146.66 85.2 140.8C88.26 148.8 93.06 154.66 99.59 158.39C106.13 162 114.93 163.8 126 163.8C136.53 163.8 145.33 162.2 152.39 159C159.6 155.66 164.73 150.86 167.8 144.6L97.4 144.6L97.4 111L166.6 111C163.53 105.26 158.8 100.8 152.39 97.6C146.13 94.26 138.33 92.6 129 92.6C120.33 92.6 111.8 94.4 103.4 98C95.13 101.6 89.06 107.13 85.2 114.6C69.06 106.33 55 100.13 43 96C57.26 67.06 85.46 52.6 127.6 52.6Z" fill="#FFFFFF" fill-opacity="1.000000" fill-rule="nonzero"/>
	</g>
</svg>
